<svg width="214" height="230" viewBox="0 0 214 230" fill="none" xmlns="http://www.w3.org/2000/svg">
<path d="M106.656 92.5576V229.928L0 183.86L0.508825 46.9863L106.656 92.5576Z" fill="#418DF9"/>
<path d="M106.658 92.6396V230.01L212.795 185.533V47.4248L106.658 92.6396Z" fill="#A2BDFF"/>
<path d="M106.656 92.5578L213.312 47.885L107.494 0.978516L0 46.7682L106.656 92.5578Z" fill="#699CFF"/>
<path d="M40.2056 29.6414L146.455 75.8879L147.42 109.589L177.148 97.3229L176.249 63.4089L66.8558 18.2891L40.2056 29.6414Z" fill="#418DF9"/>
<path d="M140.405 141.926C142.089 141.926 143.454 139.435 143.454 136.361C143.454 133.288 142.089 130.796 140.405 130.796C138.721 130.796 137.355 133.288 137.355 136.361C137.355 139.435 138.721 141.926 140.405 141.926Z" fill="white"/>
<path d="M189.526 121.913C191.21 121.913 192.575 119.421 192.575 116.347C192.575 113.274 191.21 110.782 189.526 110.782C187.842 110.782 186.477 113.274 186.477 116.347C186.477 119.421 187.842 121.913 189.526 121.913Z" fill="white"/>
<path d="M158.073 171.306L156.093 170.538C160.48 159.244 165.981 153.022 172.443 152.045C178.626 151.11 183.834 155.37 185.723 157.752L184.059 159.072C182.752 157.424 178.177 153.327 172.761 154.145C167.185 154.987 162.106 160.922 158.073 171.306Z" fill="white"/>
</svg>
